<svg id="Calque_1" data-name="Calque 1" xmlns="http://www.w3.org/2000/svg" xmlns:xlink="http://www.w3.org/1999/xlink" viewBox="0 0 125 125"><defs><style>.cls-1{fill:url(#Dégradé_sans_nom_24);}.cls-2{fill:none;stroke:#fff;stroke-miterlimit:10;stroke-width:1.31px;}.cls-3{fill:#fff;}</style><radialGradient id="Dégradé_sans_nom_24" cx="500.01" cy="500.15" r="44.19" gradientTransform="translate(-0.01 -0.15)" gradientUnits="userSpaceOnUse"><stop offset="0" stop-color="#14438c"/><stop offset="1" stop-color="#242f62"/></radialGradient></defs><title>logo-diplome-etat</title><rect class="cls-1" x="455.81" y="455.81" width="88.39" height="88.39" transform="translate(62.5 -644.61) rotate(45)"/><rect class="cls-2" x="460.17" y="460.17" width="79.67" height="79.67" transform="translate(-83.51 -629.37) rotate(33.08)"/><path class="cls-3" d="M473.72,482h2.41a15.37,15.37,0,0,1,3.17.21,2.42,2.42,0,0,1,1.26.71,2.27,2.27,0,0,1,.53,1.09,15.22,15.22,0,0,1,.11,2.37v4.35a10.55,10.55,0,0,1-.15,2.24,1.76,1.76,0,0,1-.55.89,2.34,2.34,0,0,1-1,.44,8.33,8.33,0,0,1-1.74.13h-4.07Zm3.23,2.12v8.18c.46,0,.75-.09.86-.28a4,4,0,0,0,.16-1.52v-4.83a7.51,7.51,0,0,0-.05-1.09.56.56,0,0,0-.25-.35A1.67,1.67,0,0,0,477,484.13Z" transform="translate(-437.5 -437.5)"/><path class="cls-3" d="M485.64,482v12.43h-3.23V482Z" transform="translate(-437.5 -437.5)"/><path class="cls-3" d="M486.94,482h3.25a8.18,8.18,0,0,1,2,.2,2.3,2.3,0,0,1,1.06.6,2.11,2.11,0,0,1,.49.95,9,9,0,0,1,.12,1.72v1.09a4.58,4.58,0,0,1-.24,1.73,1.69,1.69,0,0,1-.9.84,4.37,4.37,0,0,1-1.72.29h-.87v5h-3.23Zm3.23,2.12v3.17h.24a.77.77,0,0,0,.62-.21,1.67,1.67,0,0,0,.17-.91v-1a1.18,1.18,0,0,0-.2-.82A1.23,1.23,0,0,0,490.17,484.13Z" transform="translate(-437.5 -437.5)"/><path class="cls-3" d="M498.07,482V492h2v2.49h-5.2V482Z" transform="translate(-437.5 -437.5)"/><path class="cls-3" d="M508.2,489.29c0,1.24,0,2.13-.09,2.65a3,3,0,0,1-1.81,2.41,4.54,4.54,0,0,1-1.84.35,4.64,4.64,0,0,1-1.79-.33,2.85,2.85,0,0,1-1.28-1,3,3,0,0,1-.58-1.42,26.66,26.66,0,0,1-.09-2.68v-2.13a26.5,26.5,0,0,1,.09-2.65,3,3,0,0,1,1.81-2.42,5.16,5.16,0,0,1,3.63,0,3,3,0,0,1,1.28,1,2.89,2.89,0,0,1,.58,1.42,26.9,26.9,0,0,1,.09,2.69Zm-3.68-8.68-.91,1h-2.15l2-2.16h2.18l1.85,2.16h-2.08Zm.45,4.59a3.58,3.58,0,0,0-.1-1.11.37.37,0,0,0-.39-.24.44.44,0,0,0-.39.19,2.79,2.79,0,0,0-.14,1.16V491a5.56,5.56,0,0,0,.09,1.33.39.39,0,0,0,.41.26.41.41,0,0,0,.43-.3,6.22,6.22,0,0,0,.09-1.39Z" transform="translate(-437.5 -437.5)"/><path class="cls-3" d="M519.38,482v12.43h-2.82v-8.39l-1.12,8.39h-2l-1.18-8.2v8.2h-2.82V482h4.18c.12.74.25,1.62.38,2.64l.46,3.16.75-5.8Z" transform="translate(-437.5 -437.5)"/><path class="cls-3" d="M520.68,482h5.39v2.48h-2.16v2.36h2v2.37h-2V492h2.38v2.49h-5.61Z" transform="translate(-437.5 -437.5)"/><path class="cls-3" d="M485.91,508.12v9.94h2v2.49h-5.2V508.12Z" transform="translate(-437.5 -437.5)"/><path class="cls-3" d="M490.37,508.12v1.11a4.11,4.11,0,0,1-.21,1.43,2,2,0,0,1-.71,1,2.84,2.84,0,0,1-1.16.52v-.9a.9.9,0,0,0,.52-.69h-.52v-2.43Z" transform="translate(-437.5 -437.5)"/><path class="cls-3" d="M491.3,508.12h5.39v2.49h-2.16V513h2v2.37h-2v2.73h2.38v2.49H491.3Zm5.24-2.47L494,507.73h-1.56l1.35-2.08Z" transform="translate(-437.5 -437.5)"/><path class="cls-3" d="M504.14,508.12v2.49h-1.92v9.94H499v-9.94h-1.92v-2.49Z" transform="translate(-437.5 -437.5)"/><path class="cls-3" d="M509.83,508.12l1.85,12.43h-3.3l-.17-2.23h-1.16l-.19,2.23h-3.35l1.65-12.43Zm-1.71,8c-.16-1.41-.33-3.15-.49-5.22-.33,2.38-.54,4.12-.62,5.22Z" transform="translate(-437.5 -437.5)"/><path class="cls-3" d="M517.88,508.12v2.49H516v9.94h-3.24v-9.94h-1.91v-2.49Z" transform="translate(-437.5 -437.5)"/><path class="cls-3" d="M474.35,501.07v3.49h-.64v-7.43h1.43c1.36,0,2.29.4,2.29,1.91a1.65,1.65,0,0,1-1.09,1.74v0c.86.22,1,.88,1,1.81,0,.36,0,1.67.34,1.86v.09H477a8.78,8.78,0,0,1-.3-2.43c-.07-1-.81-1.06-1.66-1.06Zm0-.58h1.13a1.28,1.28,0,0,0,1.31-1.41c0-1.09-.5-1.37-1.51-1.37h-.93Z" transform="translate(-437.5 -437.5)"/><path class="cls-3" d="M478.7,504.56v-7.43h3.37v.58h-2.73v2.67h2.48V501h-2.48v3h2.78v.57Z" transform="translate(-437.5 -437.5)"/><path class="cls-3" d="M487.31,502.05c0,1.26-.62,2.69-2.1,2.69-2.15,0-2.15-2.53-2.15-4.1s.2-3.69,2.17-3.69a2.07,2.07,0,0,1,2,2.32h-.65c-.06-.88-.39-1.74-1.39-1.74-1.57,0-1.51,2.26-1.51,3.26s-.06,3.38,1.58,3.38c1.11,0,1.35-1.21,1.38-2.12Z" transform="translate(-437.5 -437.5)"/><path class="cls-3" d="M488.51,500.64c0-1.53.21-3.69,2.18-3.69,2.18,0,2.19,2.44,2.19,4.06s-.12,3.73-2.21,3.73S488.51,502.21,488.51,500.64Zm3.73.22c0-1.09,0-3.33-1.58-3.33s-1.5,2.19-1.5,3.26-.06,3.38,1.57,3.38S492.24,501.91,492.24,500.86Z" transform="translate(-437.5 -437.5)"/><path class="cls-3" d="M497.64,503.51h0v-6.38h.64v7.43h-.78l-2.76-6.36h0v6.36h-.65v-7.43h.8Z" transform="translate(-437.5 -437.5)"/><path class="cls-3" d="M503.14,503.51h0v-6.38h.65v7.43H503l-2.76-6.36h0v6.36h-.64v-7.43h.8Z" transform="translate(-437.5 -437.5)"/><path class="cls-3" d="M505.18,497.13h.65v5.39c0,1.05.24,1.65,1.36,1.65s1.41-.71,1.41-1.71v-5.33h.65v5.17c0,1.45-.44,2.44-2,2.44-1.43,0-2-.78-2-2.14Z" transform="translate(-437.5 -437.5)"/><path class="cls-3" d="M512.92,504.56v-7.43h1.32c1.67,0,2.5.42,2.5,1.94a1.94,1.94,0,0,1-.6,1.62,2.81,2.81,0,0,1-1.6.51h-1v3.36Zm.64-3.93h.56c1.15,0,2-.17,2-1.5,0-1.13-.57-1.4-1.59-1.42h-1Z" transform="translate(-437.5 -437.5)"/><path class="cls-3" d="M519.61,497.13l2,7.43h-.66l-.58-2.29H518.1l-.6,2.29h-.63l2-7.43Zm.61,4.57-1-3.75h0l-1,3.75Z" transform="translate(-437.5 -437.5)"/><path class="cls-3" d="M523,501.07v3.49h-.65v-7.43h1.44c1.35,0,2.29.4,2.29,1.91a1.65,1.65,0,0,1-1.09,1.74v0c.86.22,1,.88,1,1.81,0,.36,0,1.67.33,1.86v.09h-.7a8.78,8.78,0,0,1-.3-2.43c-.07-1-.81-1.06-1.65-1.06Zm0-.58h1.12a1.28,1.28,0,0,0,1.31-1.41c0-1.09-.49-1.37-1.5-1.37H523Z" transform="translate(-437.5 -437.5)"/></svg>