<?xml version="1.0" encoding="utf-8"?>
<!-- Generator: Adobe Illustrator 24.0.2, SVG Export Plug-In . SVG Version: 6.00 Build 0)  -->
<svg version="1.1" id="Calque_1" xmlns="http://www.w3.org/2000/svg" xmlns:xlink="http://www.w3.org/1999/xlink" x="0px" y="0px"
	 viewBox="0 0 1409.44 916.93" style="enable-background:new 0 0 1409.44 916.93;" xml:space="preserve">
<style type="text/css">
	.st0{fill:#FFFFFF;}
</style>
<g>
	<path class="st0" d="M799.48,801.26c15.75-3.34,27.59-5.22,39.08-8.38c85.85-23.66,166.05-59.56,236.61-114.39
		c62.12-48.27,112.29-105.89,132.73-184.57c20.78-79.97,1.76-151.56-47.76-215.33c-61.03-78.59-145.28-122.15-238.07-151.12
		c-48.04-15-97.21-25.88-147.67-28.02c-47.05-2-94.45-5.85-141.22-2.42c-158.16,11.62-300.38,64.67-421.05,170.3
		C121.56,346.61,53.99,442.08,8.75,553.53c-1.44,3.55-3.62,6.81-6.84,9.91c-3.23-33.48-2.93-66.48,5.24-99.27
		c26.51-106.41,88.73-189.63,169.42-260.61c102.79-90.43,222.45-148.3,355.18-178.87c43.35-9.98,87.85-16.65,132.2-20.14
		C714.4,0.58,765.5-1.68,815.92,1.52c156.8,9.94,305.04,48.51,434.07,143.22c64.79,47.56,116.1,106.67,142.16,183.96
		c33.09,98.14,17.58,191.1-37.01,277.59c-58.18,92.18-141.76,155.8-237.35,205.07c-86.49,44.58-178.24,72.4-273.84,89.98
		c-84.12,15.48-168.78,17.87-253.44,13.89c-77.21-3.63-153.31-17.85-227.27-41.5c-24.62-7.87-29.35-13.51-26.95-39.42
		c3.28-35.48,6.99-71.02,12.95-106.12c10.96-64.55,23.36-128.86,35.78-193.16c13.36-69.16,27.4-138.2,41.24-207.27
		c4.48-22.36,10.7-44.47,13.55-67.02c3.42-27.11,19.86-41.57,43.85-46.65c33.14-7.01,66.79-13.37,100.5-15.48
		c51.6-3.23,103.57-5.25,155.14-2.77c42.33,2.04,84.68,9.56,126.33,18.05c35.16,7.17,41.91,21.52,34.44,56.48
		c-3.6,16.85-5.88,34.01-9.89,50.75c-6.71,27.98-26.37,38.21-54.57,32.49c-55.32-11.22-111.25-14.33-167.52-8.14
		c-19.21,2.11-38.49,3.85-57.59,6.71c-32.46,4.86-37.34,9.84-44.31,42.18c-3.84,17.79-7.71,35.58-11.21,53.45
		c-3.51,17.87-6.57,35.83-10.12,55.33c32.21,0,63.44,0,94.67,0c20.54,0,41.08-0.09,61.62,0.02c26.93,0.15,47.05,19.59,47.4,45.58
		c0.4,30.23-18.95,52.66-46.93,52.89c-51.34,0.43-102.7,0.61-154.03-0.18c-14.4-0.22-19.86,2.8-21.78,18.69
		c-4.5,37.2-12.3,74.01-18.8,110.97c-2.1,11.94,2.16,19.88,14.52,21.84c20.57,3.26,41.14,6.88,61.85,8.86
		c57.18,5.48,114.16,2.25,170.96-5.52c9.06-1.24,18.19-2.21,27.32-2.66c14.09-0.69,24.51,12.04,22.07,26.53
		C802.82,785.56,801.59,790.88,799.48,801.26z"/>
</g>
</svg>
